<svg height="511pt" viewBox="-65 0 511 511.99963" width="511pt" xmlns="http://www.w3.org/2000/svg"><path d="m380.953125 424.589844h-323.191406v-424.58593775h307.632812c8.589844 0 15.558594 6.96484375 15.558594 15.55859375zm0 0" fill="#575f64"/><path d="m380.949219 15.5625v409.027344h-35.265625v-409.027344c0-8.597656-6.96875-15.55859375-15.558594-15.55859375h35.265625c8.601563 0 15.558594 6.96093775 15.558594 15.55859375zm0 0" fill="#474f54"/><path d="m57.765625 0v424.957031h-25.503906c-8.769531 0-16.710938 3.558594-22.460938 9.308594-3.941406 3.953125-6.859375 8.929687-8.300781 14.511719-.648438-2.539063-1-5.199219-1-7.941406v-425.273438c0-8.59375 6.96875-15.5625 15.5625-15.5625zm0 0" fill="#ffc143"/><path d="m34.316406.00390625h23.441406v424.58593775h-23.441406zm0 0" fill="#ffb509"/><path d="m365.394531 472.597656h-333.132812c-17.542969 0-31.761719-14.21875-31.761719-31.761718 0-17.542969 14.21875-31.761719 31.761719-31.761719h348.691406v47.964843c0 8.59375-6.96875 15.558594-15.558594 15.558594zm0 0" fill="#efe2dd"/><path d="m380.949219 409.074219v47.960937c0 8.601563-6.960938 15.558594-15.558594 15.558594h-35.265625c8.597656 0 15.558594-6.957031 15.558594-15.558594v-47.960937zm0 0" fill="#e1d3ce"/><path d="m306.773438 132.976562h-58.375c-2.867188 0-5.1875-2.320312-5.1875-5.1875v-44.707031c0-2.863281-2.324219-5.183593-5.1875-5.183593h-37.335938c-2.863281 0-5.183594 2.320312-5.183594 5.183593v44.707031c0 2.867188-2.324218 5.1875-5.1875 5.1875h-58.378906c-2.863281 0-5.183594 2.324219-5.183594 5.1875v37.335938c0 2.863281 2.320313 5.183594 5.183594 5.183594h58.378906c2.863282 0 5.1875 2.324218 5.1875 5.1875v140.125c0 2.863281 2.320313 5.1875 5.183594 5.1875h37.335938c2.863281 0 5.1875-2.324219 5.1875-5.1875v-140.125c0-2.863282 2.320312-5.1875 5.1875-5.1875h58.375c2.863281 0 5.1875-2.320313 5.1875-5.183594v-37.335938c0-2.863281-2.324219-5.1875-5.1875-5.1875zm0 0" fill="#efe2dd"/><path d="m311.960938 138.160156v37.339844c0 2.867188-2.320313 5.1875-5.183594 5.1875h-12.738282v-19.753906c0-2.265625-1.835937-4.101563-4.101562-4.101563h-60.546875c-2.265625 0-4.101563-1.835937-4.101563-4.101562v-46.875c0-2.265625-1.835937-4.101563-4.101562-4.101563h-25.6875v-18.675781c0-2.863281 2.320312-5.183594 5.183594-5.183594h37.34375c2.863281 0 5.1875 2.320313 5.1875 5.183594v49.894531h63.5625c2.863281 0 5.183594 2.324219 5.183594 5.1875zm0 0" fill="#e1d3ce"/><path d="m42.515625 440.835938v67.605468c0 2.710938 2.914063 4.425782 5.285156 3.101563l20.773438-11.589844c1.128906-.628906 2.507812-.597656 3.605469.085937l17.835937 11.082032c2.367187 1.46875 5.429687-.230469 5.429687-3.019532v-67.265624zm0 0" fill="#ff4343"/><path d="m95.441406 440.835938v67.261718c0 2.789063-3.0625 4.488282-5.429687 3.019532l-7.949219-4.945313v-65.335937zm0 0" fill="#f72c2c"/></svg>